<svg xmlns="http://www.w3.org/2000/svg" viewBox="0 0 64 64" shape-rendering="crispEdges">
  <rect width="64" height="64" fill="#0b3f4e"/>
  <rect x="5" y="5" width="54" height="54" fill="#2c94a4" stroke="#e8e5ce" stroke-width="4"/>
  <path d="M7 23H57M7 41H57M23 7V57M41 7V57" stroke="#176777" stroke-width="2"/>
  <path d="M13 17H34V23H28V41H34V47H13V41H19V23H13Z" fill="#f2edcf"/>
  <path d="M43 14h3v3h-3zM49 20h3v3h-3zM43 26h3v3h-3zM49 32h3v3h-3zM43 38h3v3h-3zM49 44h3v3h-3z" fill="#b8dad2"/>
</svg>
